<?xml version="1.0" standalone="no"?>
<!DOCTYPE svg PUBLIC "-//W3C//DTD SVG 20010904//EN"
 "http://www.w3.org/TR/2001/REC-SVG-20010904/DTD/svg10.dtd">
<svg version="1.0" xmlns="http://www.w3.org/2000/svg"
 width="512.000000pt" height="512.000000pt" viewBox="0 0 512.000000 512.000000"
 preserveAspectRatio="xMidYMid meet">
<metadata>
Created by potrace 1.14, written by Peter Selinger 2001-2017
</metadata>
<g transform="translate(0.000000,512.000000) scale(0.100000,-0.100000)"
fill="#000000" stroke="none">
<path d="M2348 4975 c-2 -2 -39 -6 -83 -9 -183 -15 -185 -15 -290 -31 -16 -3
-48 -7 -70 -11 -33 -4 -168 -33 -235 -49 -334 -80 -546 -179 -565 -266 -4 -17
-2 -36 4 -43 9 -11 6 -23 -10 -51 -22 -36 -22 -40 -23 -623 l-1 -586 -22 1
c-13 0 -34 1 -48 2 -18 1 -28 10 -39 36 -31 73 -88 68 -212 -17 -139 -96 -236
-227 -294 -399 -12 -35 -24 -75 -26 -89 -3 -14 -9 -48 -15 -76 -13 -67 -17
-258 -8 -337 15 -115 19 -142 30 -194 9 -47 8 -56 -9 -80 -106 -150 -198 -507
-153 -592 23 -42 56 -27 252 114 l76 54 56 -114 c54 -111 190 -344 229 -394
l18 -24 -37 -25 c-270 -181 -481 -475 -467 -650 7 -91 80 -172 153 -172 39 0
57 10 153 84 107 82 334 180 513 221 66 16 156 21 200 11 204 -43 450 -146
560 -234 104 -84 137 -96 198 -73 55 21 106 106 107 177 1 165 -175 418 -415
597 -44 33 -80 63 -80 67 0 5 35 31 77 58 280 183 550 585 715 1062 23 66 63
201 68 230 3 14 7 36 10 50 16 70 26 152 27 208 1 55 -2 67 -29 100 -81 102
-284 184 -473 191 -29 1 -39 8 -60 41 -68 111 -218 228 -370 288 -107 43 -303
80 -392 74 -10 0 -18 5 -19 11 0 7 0 217 0 467 0 250 -2 471 -5 491 -3 19 -16
47 -29 61 l-24 26 42 15 c151 55 245 87 267 91 14 3 68 14 120 25 52 11 111
22 130 25 81 11 127 17 160 21 19 2 55 6 80 9 181 21 557 22 712 1 18 -3 57
-7 87 -11 30 -3 64 -8 75 -10 12 -2 37 -7 56 -10 285 -49 628 -190 804 -328
184 -145 360 -369 435 -553 25 -60 80 -260 94 -343 50 -275 62 -432 61 -790 0
-238 -3 -314 -19 -525 -9 -128 -25 -258 -32 -265 -2 -3 -9 4 -15 15 -6 10 -29
39 -52 63 -194 211 -542 222 -753 24 -107 -100 -163 -220 -170 -367 -24 -441
468 -722 832 -476 25 17 47 31 49 31 14 0 -117 -510 -169 -656 -27 -77 -41
-132 -38 -154 9 -89 93 -166 191 -175 140 -14 193 44 277 305 20 63 39 126 42
140 2 14 11 51 19 83 13 52 24 100 39 177 3 14 10 45 15 70 10 49 35 197 45
270 3 25 8 56 10 70 6 41 14 102 21 165 3 33 8 67 9 76 2 8 6 53 10 100 4 46
8 100 10 119 27 270 27 914 0 1190 -6 64 -14 131 -19 160 -2 14 -8 52 -12 85
-4 33 -8 62 -9 65 0 3 -4 27 -9 53 -4 27 -9 59 -12 70 -17 93 -27 136 -35 163
-5 17 -11 40 -13 50 -30 154 -139 425 -223 551 -55 84 -149 192 -229 263 -205
184 -586 366 -939 450 -158 37 -279 57 -475 77 -50 5 -408 12 -412 8z"/>
</g>
</svg>
